<svg xmlns="http://www.w3.org/2000/svg" width="1920.01" height="145.534" viewBox="0 0 1920.01 145.534"><path d="M-16411.992-15965h-.008v-.006l-1920,.006,0-24.587c25.01-4.24,50.631-8.423,76.154-12.431,75.039-11.793,154.541-22.964,236.295-33.2,83-10.4,169.512-19.974,257.139-28.456,89.576-8.676,181.666-16.339,273.713-22.777,114.828-8.027,229.334-14.14,340.336-18.167,108.1-3.923,213.826-5.912,314.246-5.912,128.5,0,248.225,3.226,355.838,9.587,22.568,1.333,44.867,2.823,66.279,4.428l.008,131.519Z" transform="translate(18332.002 16110.531)" fill="#fff"/></svg>