<svg xmlns="http://www.w3.org/2000/svg" xmlns:xlink="http://www.w3.org/1999/xlink" width="954" height="1135" viewBox="0 0 954 1135"><defs><clipPath id="b"><rect width="954" height="1135"/></clipPath></defs><g id="a" clip-path="url(#b)"><rect width="954" height="1135" fill="#fff"/><rect width="960" height="1117" transform="translate(-1)" fill="#e3f9ff"/><g transform="translate(-960 107.056)"><path d="M1919.8,915.429V258.417c-17.657,8.26-29.556,24.78-29.556,44.053a60.078,60.078,0,0,0,.768,8.26l-5.758,2.065c-16.505-17.9-50.668-18.241-78.3-.688-28.4,18.241-38.385,49.216-22.647,68.833a38.016,38.016,0,0,0,9.98,8.6,136.26,136.26,0,0,0-15.354,62.982v3.1c-1.535,0-3.071-.344-4.99-.344-28.4,0-51.435,19.617-53.739,44.4-5.758-1.033-11.9-2.065-18.041-2.753-5.758-22.027-27.637-38.2-54.122-38.2-30.708,0-55.658,22.371-55.658,49.9a48.1,48.1,0,0,0,1.151,10.669,165.307,165.307,0,0,0-41.072,32.7,82.493,82.493,0,0,0-80.608,15.487c-16.122-11.7-36.849-18.585-59.112-18.585a107.463,107.463,0,0,0-28.021,3.786,110.062,110.062,0,0,0-4.99-15.832c23.031-3.786,40.688-22.027,40.688-44.053,0-24.78-22.263-44.742-49.9-44.742-19.96,0-37.233,10.669-45.294,26.157-22.263-13.422-48.749-20.994-77.537-20.994-71.779,0-130.892,48.527-138.952,110.821-4.606-.344-9.6-.688-14.586-.688-59.112,0-109.78,32.7-130.124,79.158a232.243,232.243,0,0,0-64.486-8.948A227.125,227.125,0,0,0,802.423,654.9c-14.586-30.631-48.365-51.969-87.9-51.969-40.688,0-75.234,22.715-89.052,54.722a163.659,163.659,0,0,0-39.92-29.942,77.187,77.187,0,0,0,8.445-35.105c0-47.151-42.607-85.7-95.578-85.7a103.3,103.3,0,0,0-34.546,5.851c-.768-.688-1.535-1.721-2.3-2.409,11.132-8.26,18.425-20.65,18.425-34.417,0-24.78-22.263-44.742-49.9-44.742a53.294,53.294,0,0,0-21.112,4.13c-9.98-23.747-35.7-40.612-65.638-40.612-33.395,0-61.032,20.65-68.325,48.527-7.677.688-15.354,2.065-22.647,3.442-3.071-31.319-32.243-56.1-67.941-56.1a36.763,36.763,0,0,0-6.142.344v-4.13c0-82.944-59.5-153.5-142.023-179.31a47.3,47.3,0,0,0,1.152-10.325c0-24.092-15.354-45.086-37.617-55.755V915.773h1920Z" transform="translate(0.2 111.171)" fill="#fff"/><g transform="translate(373.099)"><path d="M428.643,176.552A15.4,15.4,0,0,0,413.29,161.2,14.7,14.7,0,0,0,406,163.117a20.541,20.541,0,0,0-18.425-10.748,26.114,26.114,0,0,0-5.758.768,34.912,34.912,0,0,0-32.627-23.031,25.342,25.342,0,0,0-5.374.384c-3.838-30.708-29.94-54.89-61.8-54.89a62.2,62.2,0,0,0-60.264,46.829,42.57,42.57,0,0,0-15.738-3.071,41.7,41.7,0,0,0-41.072,35.314c-7.293,2.3-13.051,8.828-13.051,16.889a19.449,19.449,0,0,0,.768,4.99C120.415,177.7,97,181.542,97,185.764c0,5.374,33.779,9.6,75.234,9.6h11.132a40.851,40.851,0,0,0,22.263,6.525,41.546,41.546,0,0,0,16.889-3.455,22.856,22.856,0,0,0,40.3-1.152,62.809,62.809,0,0,0,19.192,3.071,48.643,48.643,0,0,0,13.051-1.535,23.452,23.452,0,0,0,17.273,7.677,22.289,22.289,0,0,0,19.576-11.515,33.245,33.245,0,0,0,17.273,4.606,35.174,35.174,0,0,0,21.879-7.677,116.283,116.283,0,0,0,13.819,1.535,4.868,4.868,0,0,1,2.3.384c11.9,1.152,26.485,1.535,41.839,1.535,41.455,0,75.234-4.222,75.234-9.6S470.1,176.552,428.643,176.552Z" transform="translate(-97 -75.6)" fill="#fff"/><path d="M707.643,275.552A15.4,15.4,0,0,0,692.289,260.2,14.7,14.7,0,0,0,685,262.117a20.541,20.541,0,0,0-18.424-10.748,26.121,26.121,0,0,0-5.758.768,34.912,34.912,0,0,0-32.627-23.031,25.34,25.34,0,0,0-5.374.384c-3.838-30.708-29.94-54.89-61.8-54.89a62.2,62.2,0,0,0-60.264,46.829,42.57,42.57,0,0,0-15.738-3.071,41.7,41.7,0,0,0-41.072,35.314c-7.293,2.3-13.051,8.828-13.051,16.889a19.443,19.443,0,0,0,.768,4.99C399.415,276.7,376,280.542,376,284.764c0,5.374,33.779,9.6,75.234,9.6h11.132a40.851,40.851,0,0,0,22.263,6.525,41.547,41.547,0,0,0,16.889-3.455,22.856,22.856,0,0,0,40.3-1.152,62.81,62.81,0,0,0,19.192,3.071,48.646,48.646,0,0,0,13.051-1.535,23.452,23.452,0,0,0,17.273,7.677,22.289,22.289,0,0,0,19.576-11.515,33.245,33.245,0,0,0,17.273,4.606,35.175,35.175,0,0,0,21.879-7.677,116.3,116.3,0,0,0,13.819,1.535,4.867,4.867,0,0,1,2.3.384c11.9,1.152,26.485,1.535,41.839,1.535,41.455,0,75.234-4.222,75.234-9.6C782.877,279.774,749.1,275.552,707.643,275.552Z" transform="translate(694.932 205.408)" fill="#fff"/><path d="M301.793,229.237a11.959,11.959,0,0,1,11.9-11.9,16.086,16.086,0,0,1,5.758,1.535,16.161,16.161,0,0,1,14.2-8.445,19.269,19.269,0,0,1,4.606.768,27.071,27.071,0,0,1,25.334-17.657,15.746,15.746,0,0,1,4.222.384,48,48,0,0,1,94.042-6.525,31.28,31.28,0,0,1,11.9-2.3,31.856,31.856,0,0,1,31.476,26.869,13.587,13.587,0,0,1,9.98,13.051,11.354,11.354,0,0,1-.768,3.838c24.566.768,42.991,3.838,42.991,7.293,0,4.222-25.718,7.293-57.577,7.293h-8.828a32.526,32.526,0,0,1-17.273,4.99,37.722,37.722,0,0,1-13.051-2.687,17.733,17.733,0,0,1-31.092-.768,46.4,46.4,0,0,1-14.586,2.3,41.839,41.839,0,0,1-9.98-1.152A16.968,16.968,0,0,1,392,252.268a17.581,17.581,0,0,1-15.354-8.829,26.939,26.939,0,0,1-30.324-2.687q-4.606.576-10.364,1.152H334.42c-9.212.768-20.344,1.152-32.243,1.152-31.859,0-57.577-3.455-57.577-7.293S269.934,229.237,301.793,229.237Z" transform="translate(321.958 140.407)" fill="#fff"/><path d="M387.293,133.459c0-2.687,5.374-4.99,11.9-4.99a29.629,29.629,0,0,1,5.758.768c2.687-1.919,8.061-3.455,14.2-3.455a18.689,18.689,0,0,1,4.606.384c3.838-4.222,13.819-7.293,25.334-7.293h4.222c3.071-9.6,23.031-17.273,47.6-17.273,22.263,0,41.072,6.142,46.445,14.586a59.6,59.6,0,0,1,11.9-1.152c16.122,0,29.172,4.99,31.476,11.132,5.758.768,9.98,2.687,9.98,5.374a2.91,2.91,0,0,1-.768,1.535c24.566.384,42.991,1.535,42.991,3.071s-25.718,3.071-57.577,3.071H576.53a76.587,76.587,0,0,1-17.273,1.919,71.784,71.784,0,0,1-13.051-1.152c-3.071,2.3-8.828,3.838-15.354,3.838-6.909,0-12.667-1.535-15.738-3.838a90.5,90.5,0,0,1-14.586.768,83.488,83.488,0,0,1-9.98-.384c-3.071,1.535-8.061,2.3-13.051,2.3-6.525,0-12.283-1.535-15.354-3.839a68.147,68.147,0,0,1-13.435,1.535,54.426,54.426,0,0,1-16.889-2.3,86.837,86.837,0,0,1-10.364.384H419.92c-9.212.384-20.344.384-32.243.384-31.859,0-57.577-1.535-57.577-3.071S355.434,133.459,387.293,133.459Z" transform="translate(564.647 -1.8)" fill="#fff"/></g></g><g transform="translate(-201.334 654.605)"><g transform="translate(96.97 53.6)"><path d="M114.6,550.753V534.47h76.7V413.7h36V212.724h16.215V198.8h41.85V211.58h15.071V328.854h30.21v-18.57h75.491V284.716h10.5V105.879H431.7V84.954h11.64V58.243h10.429V83.81h10.5v23.213h17.359V301h48.847V261.5H583.9v44.138h30.21V211.58h29V261.5h10.429v68.561h39.5V151.16l66.206-74.348H772.02V287.071h22.069V262.648h70.849v24.424h20.925V72.17h23.213V53.6h47.636V73.314h23.28v199.83h41.782v19.714h40.639V199.94l10.5-8.141h54.566l10.429,10.5V312.639h29.066V376.49h27.855V550.753Z" transform="translate(-114.6 -53.6)" fill="#d2f4fe"/></g><g transform="translate(49.334 173.101)"><rect width="0.404" height="0.875" transform="translate(472.595 296.912)" fill="#b4eefe"/><path d="M1226.3,561.225V522.874h-18.57v-85.92h-25.568v51.135h-26.711V470.6h-25.567v-60.42h-49.924V384.608h-73.2v22.069H973.043v-30.21H941.689V305.685H928.905l-42.994,29.066v29.066H859.2v29.066H831.345V308.108H817.418V294.18H806.989v12.784H793.062v129.99H753.567V381.177H709.362v30.21H652.44V357.964H640.8v-11.64H609.447v10.429h-9.285v49.924H585.292v-40.3c.067-4.508.067-9.285,0-14.2v-2.826h0c-.673-52.481-7.468-121.513-38.553-118.014-25.029,2.759-30.21,68.427-30.479,118.014h-.067v55.037H497.959v-60.42H424.823v59.209H380.685v27.855H366.757V310.328H353.974v-32.5h-4.643v32.5H334.26V432.312H293.554V403.245H262.2V389.318H220.417v15.071H176.28V479.88H150.712V594.867H43.8v12.784l1220.779,2.355v-48.78Z" transform="translate(-43.8 -231.21)" fill="#b4eefe"/></g><g transform="translate(53.707 380.258)"><path d="M50.3,703.741v-6.93h73.2v-69.7h37.409V553.9h32.3v73.2h22.607V601h11.3V587.005H301.2V601h11.3v26.106h43.6V573.952h22.607v53.153h21.8V553.9h9.554V543.473h74.953V553.9h9.554v28.8h25.3v29.6h47.906V629.73h73.2v-73.2h29.6v-14.8h14.8v14.8h29.6v36.6h24.424V615.8h95.811V546.1H940.654v28.73h72.262v24.424h34.853v-51.4H1061.7V539.1h31.421v8.747h12.178v51.4h35.727V630.6h35.66V616.677h20.925v33.1h42.724v43.532h31.354v16.552H50.3Z" transform="translate(-50.3 -539.1)" fill="#8be4fc"/></g></g></g></svg>